<svg xmlns="http://www.w3.org/2000/svg" width="15" height="15" viewBox="0 0 15 15">
    <g fill="#FFF" fill-rule="nonzero">
        <path d="M7.5.75a6.754 6.754 0 0 1 6.75 6.75 6.754 6.754 0 0 1-6.75 6.75A6.754 6.754 0 0 1 .75 7.5 6.754 6.754 0 0 1 7.5.75zm0-.75A7.49 7.49 0 0 0 0 7.5C0 11.65 3.35 15 7.5 15S15 11.65 15 7.5 11.65 0 7.5 0z"/>
        <path d="M10.375 11.15c-.1 0-.2-.05-.275-.125L7.225 7.75c-.05-.075-.1-.15-.1-.25V1.95c0-.2.175-.375.375-.375s.375.175.375.375v5.4l2.8 3.175c.125.15.125.4-.025.525a.376.376 0 0 1-.275.1z"/>
    </g>
</svg>