<!-- Generated by IcoMoon.io -->
<svg version="1.1" xmlns="http://www.w3.org/2000/svg" width="1029" height="1024" viewBox="0 0 1029 1024">
<title></title>
<g id="icomoon-ignore">
</g>
<path fill="#000" d="M429.176 7.027c-112.941 18.573-204.8 67.765-283.608 152.094-92.863 99.89-136.533 196.769-144.063 320.251-12.047 203.294 98.384 393.035 282.102 485.396 38.651 19.576 111.435 44.173 130.51 44.173 6.525 0 13.553 2.51 15.561 5.522 6.525 11.043 147.576 2.008 203.294-12.047 175.184-45.678 309.71-175.686 364.424-353.38 12.549-41.663 13.553-50.196 13.553-139.545s-1.004-97.882-13.553-139.545c-54.714-177.694-189.741-308.706-364.424-352.878-59.733-15.561-146.071-19.576-203.796-10.039zM571.733 153.098c9.035 9.537 9.035 17.569 2.008 250.98-5.522 195.263-8.533 242.447-14.055 248.471-9.537 9.537-66.761 13.051-89.349 5.522l-17.569-6.024-3.012-46.18c-1.506-25.6-5.020-136.031-8.031-245.961-4.016-148.58-4.016-201.788 0-206.808 8.031-10.039 21.584-12.047 74.29-10.541 38.651 1.004 47.686 2.51 55.718 10.541zM552.157 726.839c9.537 4.518 20.078 14.055 23.592 21.082 8.031 16.063 8.031 79.31 0 95.373-19.576 39.153-117.961 39.153-134.024-0.502-8.031-19.075-8.031-75.796 0-95.373 4.016-9.035 13.051-18.573 22.086-22.588 22.086-9.537 67.263-8.533 88.345 2.008z"></path>
</svg>
