<svg width="33" height="34" viewBox="0 0 33 34" fill="none" xmlns="http://www.w3.org/2000/svg">
<path d="M14.8794 0.960938H18.4247C21.2911 0.960938 21.8945 0.960936 23.3277 1.03637C25.0626 1.1118 26.2695 1.41352 27.2501 1.79068C28.3062 2.24327 29.2113 2.77128 30.1165 3.67646C31.0217 4.58163 31.5497 5.48681 32.0023 6.54285C32.3794 7.59888 32.6812 8.73035 32.7566 10.4653C32.832 12.0493 32.832 12.6528 32.832 16.198V18.0838C32.832 21.6291 32.832 22.2325 32.7566 23.8166C32.6812 25.5515 32.3794 26.7584 32.0023 27.739C31.5497 28.795 31.0217 29.7002 30.1165 30.6054C29.2113 31.5106 28.3062 32.0386 27.2501 32.4912C26.1941 32.8683 25.0626 33.1701 23.3277 33.2455C21.7436 33.3209 21.1402 33.3209 17.5949 33.3209H15.7091C12.1639 33.3209 11.5604 33.3209 9.97637 33.2455C8.24146 33.1701 7.03456 32.8683 6.05396 32.4912C4.99792 32.0386 4.09274 31.5106 3.18757 30.6054C2.28239 29.7002 1.75437 28.795 1.30179 27.739C0.924632 26.683 0.622907 25.5515 0.547476 23.8166C0.472045 22.3834 0.472046 21.7045 0.472046 18.9136V15.3683C0.472046 12.5019 0.472045 11.8985 0.547476 10.4653C0.622907 8.73035 0.924632 7.52345 1.30179 6.54285C1.75437 5.48681 2.28239 4.58163 3.18757 3.67646C4.09274 2.77128 4.99792 2.24327 6.05396 1.79068C7.10999 1.41352 8.24146 1.1118 9.97637 1.03637C11.485 1.03637 12.0884 0.960938 14.8794 0.960938ZM18.0475 3.90276H15.332C12.2393 3.90276 11.6359 3.90275 10.1272 3.97819C8.54318 4.05362 7.71344 4.27991 7.10999 4.50621C6.35568 4.80793 5.82766 5.18509 5.22421 5.7131C4.62076 6.31655 4.31903 6.84457 4.01731 7.59888C3.79102 8.20233 3.56472 9.03208 3.48929 10.6161C3.41386 12.1248 3.41386 12.7282 3.41386 15.8209V18.6118C3.41386 21.7045 3.41386 22.308 3.48929 23.8166C3.56472 25.4006 3.79102 26.2304 4.01731 26.8338C4.31903 27.5882 4.69619 28.1162 5.22421 28.7196C5.82766 29.3231 6.35568 29.6248 7.10999 29.9265C7.71344 30.1528 8.54318 30.3791 10.1272 30.4545C11.6359 30.53 12.2393 30.53 15.332 30.53H18.0475C21.1402 30.53 21.7436 30.53 23.2523 30.4545C24.8363 30.3791 25.6661 30.1528 26.2695 29.9265C27.0238 29.6248 27.5518 29.2476 28.1553 28.7196C28.7587 28.1162 29.0605 27.5882 29.3622 26.8338C29.5885 26.2304 29.8148 25.4006 29.8902 23.8166C29.9656 22.308 29.9656 21.7045 29.9656 18.6118V15.8963C29.9656 12.8036 29.9656 12.2002 29.8902 10.6916C29.8148 9.10751 29.5885 8.27776 29.3622 7.67431C29.0605 6.92 28.6833 6.39198 28.1553 5.78854C27.5518 5.18509 27.0238 4.88336 26.2695 4.58164C25.6661 4.35534 24.8363 4.12905 23.2523 4.05362C21.7436 3.97818 21.1402 3.90276 18.0475 3.90276ZM16.6898 9.10751C21.2156 9.10751 24.8363 12.7282 24.8363 17.2541C24.8363 21.7799 21.2156 25.4006 16.6898 25.4006C12.1639 25.4006 8.54318 21.7799 8.54318 17.2541C8.54318 12.7282 12.1639 9.10751 16.6898 9.10751ZM16.6898 11.9739C13.7479 11.9739 11.4096 14.3123 11.4096 17.2541C11.4096 20.1959 13.7479 22.5343 16.6898 22.5343C19.6316 22.5343 21.9699 20.1959 21.9699 17.2541C21.9699 14.3123 19.6316 11.9739 16.6898 11.9739ZM25.5152 6.39199C26.6467 6.39199 27.5518 7.29716 27.5518 8.42863C27.5518 9.56009 26.6467 10.4653 25.5152 10.4653C24.3837 10.4653 23.4786 9.56009 23.4786 8.42863C23.4786 7.29716 24.3837 6.39199 25.5152 6.39199Z" fill="white"/>
</svg>
